<?xml version="1.0" encoding="UTF-8"?>
<!DOCTYPE svg PUBLIC "-//W3C//DTD SVG 1.1//EN" "http://www.w3.org/Graphics/SVG/1.1/DTD/svg11.dtd">
<!-- Creator: CorelDRAW 2021 (64-Bit) -->
<svg xmlns="http://www.w3.org/2000/svg" xml:space="preserve" width="150mm" height="150mm" version="1.1" style="shape-rendering:geometricPrecision; text-rendering:geometricPrecision; image-rendering:optimizeQuality; fill-rule:evenodd; clip-rule:evenodd"
viewBox="0 0 15000 15000"
 xmlns:xlink="http://www.w3.org/1999/xlink"
 xmlns:xodm="http://www.corel.com/coreldraw/odm/2003">
 <defs>
  <style type="text/css">
   <![CDATA[
    .str0 {stroke:#2B2A29;stroke-width:20;stroke-linecap:round;stroke-linejoin:round;stroke-miterlimit:22.9256}
    .fil0 {fill:#434242}
   ]]>
  </style>
 </defs>
 <g id="Capa_x0020_1">
  <metadata id="CorelCorpID_0Corel-Layer"/>
  <g id="_1725949199776">
   <path class="fil0 str0" d="M798.53 501.47l3700 0 0 3700c0,165 -135,300 -300,300l-3700 0 0 -3700c0,-165 135,-300 300,-300z"/>
   <path class="fil0 str0" d="M798.53 5501.47l3700 0 0 3700c0,165 -135,300 -300,300l-3700 0 0 -3700c0,-165 135,-300 300,-300z"/>
   <path class="fil0 str0" d="M798.53 10501.47l3700 0 0 3700c0,165 -135,300 -300,300l-3700 0 0 -3700c0,-165 135,-300 300,-300z"/>
   <path class="fil0 str0" d="M5798.53 501.47l8700 0 0 3700.01c0,165 -134.99,299.99 -300,299.99l-8700 0 0 -3700.01c0,-165 134.99,-299.99 300,-299.99z"/>
   <path class="fil0 str0" d="M5798.53 5501.47l8700 0 0 3700c0,165 -135.01,300 -300,300l-8700 0 0 -3700c0,-165 135.01,-300 300,-300z"/>
   <path class="fil0 str0" d="M5798.53 10501.47l8700 0 0 3700c0,165 -135.01,300 -300,300l-8700 0 0 -3700c0,-165 135.01,-300 300,-300z"/>
  </g>
 </g>
</svg>
