<?xml version="1.0" encoding="UTF-8"?>
<!DOCTYPE svg PUBLIC "-//W3C//DTD SVG 1.1//EN" "http://www.w3.org/Graphics/SVG/1.1/DTD/svg11.dtd">
<!-- Creator: CorelDRAW 2021 (64-Bit) -->
<svg xmlns="http://www.w3.org/2000/svg" xml:space="preserve" width="150mm" height="150mm" version="1.1" style="shape-rendering:geometricPrecision; text-rendering:geometricPrecision; image-rendering:optimizeQuality; fill-rule:evenodd; clip-rule:evenodd"
viewBox="0 0 15000 15000"
 xmlns:xlink="http://www.w3.org/1999/xlink"
 xmlns:xodm="http://www.corel.com/coreldraw/odm/2003">
 <defs>
  <style type="text/css">
   <![CDATA[
    .fil0 {fill:#434242}
   ]]>
  </style>
 </defs>
 <g id="Capa_x0020_1">
  <metadata id="CorelCorpID_0Corel-Layer"/>
  <g id="_2092687520592">
   <path class="fil0" d="M2204.63 6844.89l10587.83 -1.28c-75.09,-1471.75 -703.52,-2313.25 -1518.85,-2889.69 -1077.77,-761.99 -2309.09,-621.43 -3774.55,-621.51 -1535.06,-0.08 -2622.16,-138.93 -3778.97,618.43 -817.45,535.18 -1420.48,1473.3 -1515.46,2894.05z"/>
   <polygon class="fil0" points="1839.3,8267.2 13150.36,8278.22 13162.98,7058.41 1834.08,7041.8 "/>
   <path class="fil0" d="M6683.95 3038.36l1627.46 29.22 2.74 -227.08 -0.51 -2584.89 -3.06 -237.94c-389.99,0.02 -1306.24,-54.17 -1627.67,35.6l1.04 2985.09z"/>
   <path class="fil0" d="M9596.7 12112.35c129.07,642.71 1416.36,632.86 936.97,-674.47 -474.9,-1295.03 -1047.73,123.05 -936.97,674.47z"/>
   <path class="fil0" d="M8738.6 12337.12c214.3,-541.25 -400.2,-1976.98 -857.97,-913.44 -581.56,1351.13 635.67,1474.8 857.97,913.44z"/>
   <path class="fil0" d="M6658.13 8779.85c-472.4,213.04 -752.62,1755.07 206.18,1578.2 807.57,-148.98 230.82,-1775.29 -206.18,-1578.2z"/>
   <path class="fil0" d="M6227.56 14584.84c115.4,602.07 1409.53,682.89 937.58,-677.37 -447.99,-1291.25 -1045.77,112.98 -937.58,677.37z"/>
   <path class="fil0" d="M9638.27 8729.94c-456.28,198.62 -720.35,1805.92 256.09,1566.96 753.87,-184.5 208.96,-1769.41 -256.09,-1566.96z"/>
   <path class="fil0" d="M6225.98 12224.72c104.13,632.98 1405.12,683.44 937.25,-675.58 -407.3,-1183.12 -1049.31,-5.7 -937.25,675.58z"/>
   <path class="fil0" d="M3910.31 14360.07c190.91,581.44 1400.01,528.23 897.44,-849.72 -424.61,-1164.22 -1063.97,342.55 -897.44,849.72z"/>
   <path class="fil0" d="M7725.36 14584.84c118.79,637.13 1391.88,639.19 953.06,-672.63 -436.89,-1306.09 -1051.92,142.31 -953.06,672.63z"/>
   <path class="fil0" d="M4356.7 12112.35c113.57,623.56 1391.05,659 955.37,-677.74 -420.52,-1290.24 -1053.24,140.36 -955.37,677.74z"/>
   <path class="fil0" d="M11104.06 14303.87c126.6,-432 -466.98,-1955.22 -912.71,-791.83 -510.34,1332.07 708.08,1490.16 912.71,791.83z"/>
   <path class="fil0" d="M8176.22 8781.39c-458.69,187.87 -790.35,1800.83 200.41,1571.21 779.32,-180.61 236.75,-1750.26 -200.41,-1571.21z"/>
   <path class="fil0" d="M5196.02 8726.95c-432.26,163.47 -827.63,1733.65 156.08,1579.73 787.96,-123.29 320.01,-1759.79 -156.08,-1579.73z"/>
  </g>
 </g>
</svg>
