<?xml version="1.0" encoding="UTF-8"?>
<!DOCTYPE svg PUBLIC "-//W3C//DTD SVG 1.1//EN" "http://www.w3.org/Graphics/SVG/1.1/DTD/svg11.dtd">
<!-- Creator: CorelDRAW 2021 (64-Bit) -->
<svg xmlns="http://www.w3.org/2000/svg" xml:space="preserve" width="150mm" height="150mm" version="1.1" style="shape-rendering:geometricPrecision; text-rendering:geometricPrecision; image-rendering:optimizeQuality; fill-rule:evenodd; clip-rule:evenodd"
viewBox="0 0 15000 15000"
 xmlns:xlink="http://www.w3.org/1999/xlink"
 xmlns:xodm="http://www.corel.com/coreldraw/odm/2003">
 <defs>
  <style type="text/css">
   <![CDATA[
    .fil0 {fill:#434242}
   ]]>
  </style>
 </defs>
 <g id="Capa_x0020_1">
  <metadata id="CorelCorpID_0Corel-Layer"/>
  <g id="_2092677645136">
   <path class="fil0" d="M1661.97 8633.45c-72.43,-324.55 -25.44,-4538.05 -24.01,-5239.51 1.11,-538.61 22.25,-789.96 -553.93,-794.65 -444.07,-3.64 -903.27,-88.36 -1037.26,274.51 -78.34,212.18 -32.13,7191.51 -32.13,7761.1 0,1609.91 -205.52,1755.41 851.93,1757.32 1093.95,1.99 674.59,-289.91 780.14,-1812.59l11715.6 12.17c31.11,474.24 -141.66,1401.12 140.51,1673.99 189.4,183.16 1235.33,239.56 1416.78,-77.31 111.57,-194.86 57.77,-2173.4 57.79,-2674.2 0.03,-931.68 81.8,-880.5 -447.52,-875.71l-9568.81 0.65c-1052.01,0.03 -2267.31,56.37 -3299.09,-5.77z"/>
   <path class="fil0" d="M5329.37 5980.03l14.08 2190.93c3076.53,37.94 6307.4,3.62 9401.48,3.65 312.09,0.02 248.29,50.56 248.11,-815.36 -0.1,-1245.22 -948.73,-2273.03 -2187.64,-2273.03l-6508.22 0.02c-630.83,0.32 -967.89,245.66 -967.81,893.79z"/>
   <path class="fil0" d="M2199.56 7100.64c374.03,1713.74 2906.3,1251.17 2630.04,-511.04 -101.1,-644.9 -772.29,-1257.7 -1578.17,-1071.05 -620.55,143.72 -1235.82,739.28 -1051.87,1582.09z"/>
  </g>
 </g>
</svg>
