<?xml version="1.0" encoding="UTF-8"?>
<!DOCTYPE svg PUBLIC "-//W3C//DTD SVG 1.1//EN" "http://www.w3.org/Graphics/SVG/1.1/DTD/svg11.dtd">
<!-- Creator: CorelDRAW 2021 (64-Bit) -->
<svg xmlns="http://www.w3.org/2000/svg" xml:space="preserve" width="150mm" height="150mm" version="1.1" style="shape-rendering:geometricPrecision; text-rendering:geometricPrecision; image-rendering:optimizeQuality; fill-rule:evenodd; clip-rule:evenodd"
viewBox="0 0 15000 15000"
 xmlns:xlink="http://www.w3.org/1999/xlink"
 xmlns:xodm="http://www.corel.com/coreldraw/odm/2003">
 <defs>
  <style type="text/css">
   <![CDATA[
    .fil0 {fill:#434242}
   ]]>
  </style>
 </defs>
 <g id="Capa_x0020_1">
  <metadata id="CorelCorpID_0Corel-Layer"/>
  <path class="fil0" d="M5006.19 5706.53c-117.02,-1452.91 989.46,-2578.29 2300.89,-2689.45 1443.9,-122.4 2575.58,992.68 2684.83,2295.67 121.68,1451.23 -987.19,2574.73 -2293.68,2691.27 -1446.55,129.03 -2587.11,-994.73 -2692.04,-2297.49zm-3009.69 -186.26c0,2026.08 1177.34,4240.17 2009.99,5483.02 517.33,772.17 1004.04,1442.27 1603.67,2130.13 287.7,330.03 590.2,669.24 865.21,1005.93 138.73,169.84 287.13,330.5 428.02,503.32 104.59,128.29 360.34,360.28 579.52,360.28l59.26 0c301.23,0 720.6,-538.38 891.24,-725.9 260.66,-286.42 505,-572.87 754.26,-871.34 499.64,-598.29 964.46,-1182.32 1419.27,-1823.47 824.97,-1162.95 1747.92,-2769.01 2147.39,-4346.56 556.74,-2198.66 133.03,-3697.38 -905.04,-5082.73 -853.58,-1139.14 -2353.13,-2152.96 -4340.98,-2152.96l-67.74 0c-2994.59,0 -5444.07,2517.3 -5444.07,5520.28z"/>
 </g>
</svg>
